<svg width="200" height="200" viewBox="0 0 200 200" xmlns="http://www.w3.org/2000/svg">
  <!-- App icon background -->
  <rect width="200" height="200" rx="44" fill="#a89b8c"/>

  <!-- Bottle nipple -->
  <rect x="82" y="22" width="36" height="22" rx="11" fill="white" opacity="0.95"/>

  <!-- Bottle collar -->
  <rect x="70" y="42" width="60" height="14" rx="6" fill="white" opacity="0.7"/>

  <!-- Bottle body -->
  <rect x="58" y="54" width="84" height="112" rx="24" fill="white" opacity="0.95"/>

  <!-- Milk fill (bottom portion of bottle) -->
  <rect x="58" y="112" width="84" height="54" rx="24" fill="#ece7e1" opacity="0.6"/>

  <!-- Measurement lines -->
  <line x1="72" y1="102" x2="84" y2="102" stroke="#a89b8c" stroke-width="3" stroke-linecap="round" opacity="0.5"/>
  <line x1="72" y1="120" x2="84" y2="120" stroke="#a89b8c" stroke-width="3" stroke-linecap="round" opacity="0.5"/>
  <line x1="72" y1="138" x2="84" y2="138" stroke="#a89b8c" stroke-width="3" stroke-linecap="round" opacity="0.5"/>

  <!-- Heart accent -->
  <path d="M100 148 C100 148 86 136 86 127 C86 121 93 117 100 124 C107 117 114 121 114 127 C114 136 100 148 100 148Z" fill="#a89b8c" opacity="0.55"/>
</svg>
